<?xml version="1.0" encoding="UTF-8"?>
<!DOCTYPE svg PUBLIC "-//W3C//DTD SVG 1.1//EN" "http://www.w3.org/Graphics/SVG/1.1/DTD/svg11.dtd">
<!-- Creator: CorelDRAW -->
<svg xmlns="http://www.w3.org/2000/svg" xml:space="preserve" width="20.1898in" height="20.461in" style="shape-rendering:geometricPrecision; text-rendering:geometricPrecision; image-rendering:optimizeQuality; fill-rule:evenodd; clip-rule:evenodd"
viewBox="0 0 3.98497 4.0385"
 xmlns:xlink="http://www.w3.org/1999/xlink">
 <defs>
  <style type="text/css">
   <![CDATA[
    .str1 {stroke:white;stroke-width:0.000592127}
    .str0 {stroke:white;stroke-width:0.0657922}
    .fil0 {fill:none}
    .fil2 {fill:#1F1A17;fill-rule:nonzero}
    .fil1 {fill:white;fill-rule:nonzero}
   ]]>
  </style>
 </defs>
 <g id="Capa_x0020_1">
  <metadata id="CorelCorpID_0Corel-Layer"/>
  <path class="fil0 str0" d="M0.200741 0.0328965l3.58349 0c0.0923144,0 0.167845,0.0855368 0.167845,0.190081l0 3.59254c0,0.104545 -0.0755304,0.190082 -0.167845,0.190082l-3.58349 0c-0.0923144,0 -0.167845,-0.0855368 -0.167845,-0.190082l0 -3.59254c0,-0.104545 0.0755304,-0.190081 0.167845,-0.190081z"/>
  <path class="fil1 str1" d="M0.488257 3.10465c-0.187725,-0.0913601 -0.330461,-0.207792 -0.428574,-0.350365 -0.00606037,-0.00877234 -0.0119304,-0.0176138 -0.0176271,-0.0265292l0 -1.00039c0.00303679,-0.00643259 0.00611243,-0.0128776 0.00925257,-0.0193319l0.583366 -1.19872c0.0972861,-0.199906 0.216803,-0.354435 0.358908,-0.462522l0.00265603 -0.00202038 1.11129 0c0.132467,0.0788027 0.236169,0.17268 0.309957,0.281114 0.0930425,0.134781 0.140349,0.292511 0.141564,0.472116 0.00192947,0.179952 -0.0425998,0.380722 -0.132532,0.601932l0 0 -0.491526 -0.239205 0 0c0.0447499,-0.11381 0.0675422,-0.215266 0.0683464,-0.306155 0.000458471,-0.0901743 -0.0182021,-0.168376 -0.0570393,-0.234248 -0.0391908,-0.0651542 -0.0971299,-0.117275 -0.173796,-0.154585 -0.127536,-0.06207 -0.248769,-0.0678973 -0.364418,-0.0178306 -0.115273,0.0511343 -0.209721,0.15051 -0.282597,0.300258l-0.58337 1.19873c-0.072876,0.149753 -0.0928008,0.285395 -0.0612137,0.406227 0.032309,0.121177 0.111699,0.212987 0.23924,0.275057 0.116073,0.056486 0.229442,0.0602618 0.339043,0.011684 0.110319,-0.0482234 0.21255,-0.152673 0.307776,-0.31193l0 0 0.491526 0.239205 0 0c-0.11824,0.206545 -0.248752,0.365465 -0.391554,0.474984 -0.142087,0.10987 -0.295401,0.169958 -0.459225,0.180626 -0.162761,0.0103039 -0.336743,-0.0291728 -0.519453,-0.118088z"/>
  <path class="fil2 str1" d="M0.487535 3.10613c-0.0939726,-0.0457321 -0.176698,-0.0977539 -0.248207,-0.156181 -0.0715309,-0.0584458 -0.131862,-0.123323 -0.180997,-0.194728l-0.00162252 -0.00235297 -4.66242e-006 -8.54777e-006c-0.00500899,-0.00730213 -0.00988822,-0.0146517 -0.014647,-0.0220532l0 -0.00611632c0.00561511,0.0088415 0.0113942,0.0176146 0.0173597,0.0263093l0.00162175 0.00235297c0.0489632,0.0711501 0.109078,0.135798 0.180367,0.194045 0.0713102,0.0582678 0.153828,0.110151 0.247575,0.155775 0.131239,0.0638651 0.257953,0.102196 0.379204,0.114849 0.0235887,0.0024571 0.0469824,0.00395373 0.0701422,0.00446815 0.0231466,0.000515197 0.0461121,6.06115e-005 0.0688702,-0.00136687l0.00041107 -2.56433e-005c0.117582,-0.00765647 0.229758,-0.0408304 0.336227,-0.0996476 0.0207112,-0.0114416 0.041229,-0.0238654 0.0615206,-0.0372621 0.0202963,-0.0133975 0.0403851,-0.0277756 0.0602315,-0.0431064l0.000346573 -0.000268089 3.88535e-006 -4.66242e-006c0.102659,-0.0787327 0.198984,-0.183065 0.288964,-0.312318 0.0175587,-0.0252237 0.0348267,-0.0513123 0.0517925,-0.0782447 0.016693,-0.0265035 0.0332128,-0.0539761 0.0495079,-0.0823966l-0.488601 -0.237782c-0.0474362,0.0791524 -0.0966333,0.144753 -0.147695,0.19661 -0.0513985,0.0521942 -0.104709,0.0904906 -0.160057,0.114684 -0.079014,0.0350218 -0.159992,0.0429463 -0.24251,0.0236447 -0.0160403,-0.00375014 -0.0321792,-0.00855166 -0.0484014,-0.0143875 -0.0161949,-0.00582647 -0.0324388,-0.0126919 -0.0487122,-0.0205776l-8.54777e-006 -3.88535e-006 -0.00079572 -0.000389312 0 3.88535e-006c-0.0639606,-0.0311279 -0.115874,-0.0697397 -0.155852,-0.115766 -0.0399919,-0.0460476 -0.0680441,-0.0995271 -0.0842569,-0.160352l0 -8.54777e-006c-0.0228055,-0.0872417 -0.0188517,-0.18217 0.0123888,-0.284487 0.00607747,-0.0199031 0.0131845,-0.0400821 0.0213174,-0.0605089 0.0081367,-0.0204432 0.0173162,-0.0411676 0.0275246,-0.0621609l4.66242e-006 -8.54777e-006 9.48025e-005 -0.000194268 -4.66242e-006 0 0.583371 -1.19873c0.0365005,-0.0750129 0.078439,-0.137438 0.12568,-0.187512 0.0472808,-0.050114 0.0999032,-0.0878781 0.157734,-0.113529l1.32102e-005 0c0.0580596,-0.0251328 0.11753,-0.0362418 0.178476,-0.0332741 0.0609277,0.00296297 0.123344,0.0199979 0.187314,0.0511304 0.0553779,0.0269496 0.101036,0.0616162 0.136953,0.103325l8.54777e-006 0c0.00694312,0.00806754 0.01357,0.0164599 0.019851,0.0251413 0.00625464,0.00864257 0.0121378,0.017554 0.0176449,0.0267071l0 4.66242e-006 2.56433e-005 4.27389e-005 4.66242e-006 9.32484e-006c0.0194959,0.0330744 0.0339393,0.0692509 0.0434343,0.108459 0.00949502,0.0391876 0.0140634,0.0814237 0.0138342,0.126628l0 8.54777e-006c-0.000402522,0.0455542 -0.00631991,0.0937644 -0.0177312,0.144822 -0.0113165,0.0506067 -0.0280483,0.104047 -0.05017,0.160507l0.488576 0.237769c0.0446023,-0.109934 0.0779712,-0.214808 0.0999677,-0.314542 0.0221045,-0.100215 0.0327418,-0.195277 0.0317814,-0.285127l0 -8.54777e-006c-0.000864879,-0.127895 -0.0251499,-0.244681 -0.0727112,-0.349949 -0.00930464,-0.0206079 -0.0195223,-0.0407876 -0.0306181,-0.0605128 -0.0111043,-0.0197384 -0.0230953,-0.0390268 -0.0359644,-0.0578443l-0.00198075 -0.0028806 -4.66242e-006 -8.54777e-006c-0.0660844,-0.0971174 -0.15622,-0.182559 -0.26958,-0.255924 -0.0137083,-0.00887259 -0.0277888,-0.0175711 -0.0422198,-0.026115l0.00641938 0c0.0127789,0.00763938 0.0253232,0.0154256 0.0375908,0.0233634 0.113729,0.0736025 0.204176,0.159348 0.270503,0.256815l0.00198075 0.00288138 4.66242e-006 8.54777e-006c0.0129421,0.0189248 0.0249898,0.0383002 0.0361237,0.0580945 0.0111393,0.0198036 0.0213958,0.040065 0.0307479,0.0607723 0.0477517,0.105678 0.0721276,0.222915 0.0729972,0.351282 0.000964344,0.090092 -0.00969861,0.185406 -0.0318591,0.285862 -0.0221527,0.100436 -0.0557983,0.206027 -0.10079,0.316701l-0.000662064 0.00163496 -0.00158755 -0.000773962 -0.491526 -0.239205 -0.0013622 -0.000662064 0.000553274 -0.00141427c0.0223384,-0.0568271 0.0392086,-0.11057 0.050581,-0.161432 0.0113639,-0.050832 0.0172556,-0.0988177 0.0176535,-0.144139 0.000224573,-0.0449488 -0.00430885,-0.0869254 -0.0137386,-0.12584 -0.00941731,-0.0388885 -0.0237356,-0.0747619 -0.0430676,-0.107551l-2.56433e-005 -3.88535e-005c-0.00546358,-0.00907929 -0.0112986,-0.017913 -0.0174887,-0.0264732l0 -4.66242e-006c-0.00615129,-0.00850814 -0.0127222,-0.0168228 -0.0196863,-0.0249121l3.88535e-006 -3.88535e-006c-0.0356224,-0.0413673 -0.0809303,-0.0757566 -0.13591,-0.102516 -0.0635628,-0.0309383 -0.12555,-0.0478605 -0.186025,-0.0508017 -0.0604522,-0.00294587 -0.119438,0.00807143 -0.17701,0.0329921l0 4.66242e-006c-0.0574286,0.02547 -0.109687,0.0629831 -0.156661,0.112768 -0.047012,0.0498288 -0.0887554,0.111981 -0.125118,0.186708l-0.583371 1.19873 -3.88535e-006 0 -9.09172e-005 0.00018572c-0.0101788,0.0209281 -0.0193234,0.0415795 -0.0274298,0.0619449 -0.00811106,0.020374 -0.0151917,0.0404675 -0.0212311,0.0602494 -0.0310587,0.10172 -0.0349992,0.196056 -0.0123453,0.282705 0.016083,0.0603348 0.0439021,0.113378 0.083556,0.159036 0.0396756,0.0456801 0.0912475,0.084023 0.154814,0.114961l0 4.66242e-006 0.000787172 0.00038465c0.0161957,0.00784763 0.0323354,0.0146688 0.048392,0.0204478 0.0160317,0.00576664 0.0320495,0.0105293 0.0480377,0.014267 0.081813,0.0191369 0.162103,0.0112768 0.240443,-0.0234458l3.88535e-006 0c0.0549591,-0.0240208 0.107932,-0.0620832 0.159032,-0.113975 0.0511561,-0.0519479 0.100448,-0.117777 0.147993,-0.197293l0.000778624 -0.00129382 0.00135366 0.000658178 0.491526 0.239205 0.00154792 0.000752981 -0.000829911 0.00151373 -2.64204e-005 4.74013e-005 -1.24331e-005 3.03057e-005c-0.0165291,0.0288705 -0.0333386,0.0568792 -0.050421,0.0839974 -0.0171002,0.0271485 -0.0343947,0.0532806 -0.0518617,0.0783745 -0.0901658,0.129526 -0.186734,0.234105 -0.289674,0.313054l-0.000341911 0.000263427c-0.0199241,0.0153914 -0.0400735,0.0298131 -0.0604219,0.0432447 -0.0203522,0.0134355 -0.040943,0.0259029 -0.0617545,0.0374004 -0.106906,0.059055 -0.219536,0.092368 -0.337603,0.100055l-0.00041107 2.56433e-005c-0.0228055,0.00143214 -0.0458658,0.00188595 -0.0691383,0.00136687 -0.0232593,-0.000519083 -0.04674,-0.00201572 -0.0704189,-0.00448603 -0.121649,-0.0126911 -0.248731,-0.0511258 -0.380311,-0.115159zm-0.445479 -1.38262c0.00255656,-0.00538976 0.00514343,-0.0107927 0.00777381,-0.0161996l0.583366 -1.19873 1.32102e-005 -1.32102e-005 1.70955e-005 -3.41911e-005 -4.66242e-006 -4.66242e-006c0.0136135,-0.0279699 0.0276893,-0.0551013 0.0422066,-0.0813546 0.0144869,-0.0262005 0.0294455,-0.0515454 0.0448408,-0.0760114 0.0791221,-0.125715 0.169855,-0.227747 0.272319,-0.305684l-4.66242e-006 -3.88535e-006 0.000355121 -0.000272752 0.000579694 -0.000441376 0.00542861 0 -0.00400968 0.00305389 -0.000355121 0.000272752 -8.54777e-006 0c-0.10214,0.0776907 -0.192612,0.179436 -0.271527,0.304823 -0.0153262,0.0243495 -0.0302459,0.0496423 -0.0447367,0.0758475 -0.0144566,0.0261492 -0.0285068,0.0532285 -0.0421289,0.0812155l-1.32102e-005 1.32102e-005 -1.70955e-005 3.49682e-005 4.66242e-006 3.88535e-006 -0.583366 1.19873c-0.00365145,0.00750572 -0.00721976,0.015006 -0.0107329,0.0224814l0 -0.00772641z"/>
  <path class="fil1 str1" d="M1.8065 3.34738l0.086498 -0.475897 1.3185 -2.18765 0.562918 0.102313 -1.28607 2.1652 1.38812 0.249872 -0.0919134 0.505689 -1.97806 -0.359531zm1.68371 0.633259l-0.536164 0 0.332793 -1.83094 0.519445 0.0919826 -0.316074 1.73896z"/>
  <path class="fil2 str1" d="M1.80488 3.34709l0.086498 -0.475897 0.000207478 -0.000557936 1.3185 -2.18765 0.000588242 -0.000969006 0.00111199 0.00019893 0.562918 0.102313 0.00233121 0.000423503 -0.00120679 0.00202893 -1.28486 2.16317 0.628159 0.113075 0.166096 -0.913819 0.00029451 -0.0016132 0.00160465 0.000281299 0.519445 0.0919826 0.00163496 0.000289847 -0.000298395 0.00162175 -0.166364 0.915294 0.235221 0.0423402 0.00161786 0.00029451 -0.000289847 0.0016132 -0.0919134 0.505689 -0.00029451 0.00162175 -0.0016132 -0.000293732 -0.235156 -0.0427427 -0.0572258 0.314853 -0.00334373 0 0.0573338 -0.315442 -0.515785 -0.0937473 -0.0743726 0.40919 -0.00333985 0 0.0744814 -0.409778 -1.22065 -0.221864 -0.00161786 -0.000293732 0.000289847 -0.00161397zm0.089677 -0.47501l-0.0861468 0.473976 1.21903 0.221569 0.0910913 -0.501168 -0.630482 -0.11349 -0.00233199 -0.000419618 0.00120757 -0.00203282 1.28486 -2.16317 -0.559471 -0.101685 -1.31776 2.18642zm1.2278 0.191726l0.51594 0.0928739 0.16607 -0.913667 -0.516208 -0.0914075 -0.165802 0.912201zm0.752196 0.138744l-0.233608 -0.0420543 -0.0912513 0.502059 0.233534 0.0424443 0.0913252 -0.502449zm-0.236844 -0.0426339l-0.51594 -0.0928739 -0.0910959 0.501172 0.515785 0.093752 0.0912513 -0.50205z"/>
 </g>
</svg>
