<?xml version="1.0" standalone="no"?>
<!DOCTYPE svg PUBLIC "-//W3C//DTD SVG 20010904//EN"
 "http://www.w3.org/TR/2001/REC-SVG-20010904/DTD/svg10.dtd">
<svg version="1.0" xmlns="http://www.w3.org/2000/svg"
 width="769.000000pt" height="769.000000pt" viewBox="0 0 769.000000 769.000000"
 preserveAspectRatio="xMidYMid meet">

<g transform="translate(0.000000,769.000000) scale(0.100000,-0.100000)"
fill="#000000" stroke="none">
<path d="M10 3850 l0 -3840 3840 0 3840 0 0 3840 0 3840 -3840 0 -3840 0 0
-3840z m6378 983 l2 -2583 -2540 0 -2540 0 0 2578 c0 1418 3 2582 7 2585 3 4
1145 6 2537 5 l2531 -3 3 -2582z m-2316 -2874 c99 -21 171 -68 222 -143 47
-70 66 -141 66 -253 l0 -93 -124 0 -123 0 -6 75 c-6 89 -28 132 -77 158 -46
24 -137 18 -178 -12 -46 -32 -54 -65 -50 -195 l3 -115 40 -41 c25 -26 76 -59
135 -87 52 -25 91 -47 85 -49 -120 -39 -309 -94 -325 -94 -35 0 -126 95 -163
169 l-32 66 0 175 c0 172 1 176 29 237 30 65 97 137 154 167 83 43 234 58 344
35z m-2204 -721 l-3 -712 -120 -38 c-66 -21 -123 -38 -127 -38 -5 0 -8 338 -8
750 l0 750 130 0 130 0 -2 -712z m1265 215 c64 -273 115 -498 114 -500 -12
-11 -210 -64 -216 -57 -5 5 -32 136 -62 292 -29 155 -56 275 -60 265 -3 -10
-32 -155 -64 -323 -31 -168 -63 -310 -69 -316 -9 -9 -109 -43 -237 -80 -12 -3
13 119 122 580 75 322 140 597 143 611 6 25 7 25 109 25 l103 0 117 -497z
m2197 377 l0 -120 -240 0 -240 0 0 -129 c0 -72 -4 -132 -9 -136 -11 -6 -232
-75 -243 -75 -5 0 -8 131 -8 290 l0 290 370 0 370 0 0 -120z m725 106 c59 -16
113 -38 138 -58 16 -12 -22 -26 -332 -121 -192 -59 -354 -107 -360 -107 -8 0
-11 47 -11 150 l0 150 258 0 c184 0 271 -4 307 -14z m283 -429 c5 -185 -5
-263 -43 -337 -27 -51 -85 -114 -127 -136 -15 -8 -28 -18 -28 -23 0 -5 56
-178 124 -385 l124 -377 -141 3 -141 3 -106 355 -106 355 -72 3 -72 3 0 -361
0 -360 -130 0 -130 0 2 642 3 641 120 38 c66 21 123 39 128 39 4 0 7 -88 7
-195 l0 -195 116 0 c129 0 157 9 190 64 16 27 19 52 19 176 0 153 -10 195 -52
219 -22 12 -28 9 140 62 l122 37 25 -51 c22 -47 25 -67 28 -220z m-1488 -232
l0 -55 210 0 210 0 0 -125 0 -125 -210 0 -210 0 0 -235 0 -235 240 0 240 0 0
-125 0 -125 -370 0 -370 0 0 503 0 503 118 36 c64 20 123 37 130 37 8 1 12
-16 12 -54z m-587 -192 c26 -25 59 -71 75 -102 26 -53 27 -64 31 -231 3 -193
-5 -256 -47 -333 -73 -136 -256 -209 -447 -179 -223 35 -335 169 -335 404 l0
88 124 0 123 0 5 -68 c8 -107 41 -154 123 -172 99 -22 176 25 196 119 16 80 7
229 -17 270 -20 35 -101 94 -172 125 -23 10 -42 22 -42 26 0 8 287 99 315 99
12 1 42 -20 68 -46z m-920 -520 c37 -159 67 -294 67 -300 0 -10 -33 -13 -130
-13 -71 0 -130 2 -130 3 0 2 -13 73 -30 158 -16 85 -30 155 -30 157 0 1 -80 1
-177 0 l-178 -3 -29 -157 -30 -158 -134 0 c-103 0 -133 3 -129 12 2 7 21 87
42 178 21 91 39 166 40 168 2 2 764 240 775 241 3 1 35 -128 73 -286z m-1013
-188 l0 -125 -360 0 -360 0 0 43 0 44 238 73 c297 92 279 88 390 89 l92 1 0
-125z"/>
<path d="M1400 6318 c0 -556 2 -1009 4 -1007 2 2 173 352 380 776 206 425 400
814 431 864 74 121 132 197 229 297 l80 82 -562 0 -562 0 0 -1012z"/>
<path d="M4161 7289 c214 -159 354 -366 421 -617 20 -77 23 -110 23 -287 0
-169 -4 -216 -23 -308 -41 -195 -128 -455 -151 -450 -15 4 -614 294 -623 302
-4 3 6 46 23 94 123 369 36 671 -231 800 -244 117 -473 83 -655 -98 -120 -118
-95 -71 -648 -1210 -183 -379 -337 -707 -352 -755 -54 -170 -45 -336 27 -478
80 -161 313 -302 498 -302 199 0 412 149 562 393 17 26 35 47 42 47 7 0 153
-69 324 -152 l312 -153 -64 -101 c-185 -296 -415 -524 -645 -641 -94 -48 -231
-89 -341 -103 -365 -47 -841 137 -1147 445 l-113 113 0 -749 0 -749 1859 0
c1023 0 1862 3 1865 8 7 11 89 472 85 476 -2 2 -344 65 -759 141 -415 75 -767
139 -782 142 -20 4 -28 11 -28 27 0 11 24 152 54 311 l53 290 847 1405 c466
773 851 1409 856 1413 8 9 700 -111 721 -124 7 -4 -299 -530 -815 -1399 -455
-765 -825 -1394 -822 -1397 5 -6 761 -143 786 -143 12 0 36 116 120 581 58
319 107 584 110 589 4 6 642 -101 670 -112 3 -2 -42 -268 -101 -593 -59 -324
-106 -591 -106 -591 1 -1 58 -11 127 -24 69 -12 133 -24 143 -27 16 -4 17 96
17 2011 l0 2016 -1097 0 -1097 0 55 -41z"/>
<path d="M6247 2908 c-26 -144 -50 -264 -52 -266 -2 -2 -70 8 -150 23 -81 14
-149 24 -151 22 -5 -4 -64 -324 -64 -344 0 -10 50 -13 235 -13 l235 0 0 420
c0 231 -1 420 -3 420 -1 0 -24 -118 -50 -262z"/>
</g>
</svg>
